<svg xmlns="http://www.w3.org/2000/svg" xmlns:xlink="http://www.w3.org/1999/xlink" width="874pt" height="382pt" viewBox="0.00 0.00 874.00 382.00">
<g id="graph0" class="graph" transform="scale(1 1) rotate(0) translate(4 378)">
<polygon fill="white" stroke="transparent" points="-4,4 -4,-378 870,-378 870,4 -4,4"/>
<!-- CameraTracking -->
<g id="node1" class="node">
<title>CameraTracking</title>
<g id="a_node1"><a xlink:title="→ Chunk→ ExperimentCamera→ TrackingParamSet">
<ellipse fill="#00007f" fill-opacity="0.250980" stroke="#00007f" stroke-opacity="0.250980" cx="65.62" cy="-72.5" rx="65.75" ry="17.5"/>
<text text-anchor="middle" x="65.62" y="-69.4" font-family="arial" font-size="12.00" fill="#00007f" fill-opacity="0.627451">CameraTracking</text>
</a>
</g>
</g>
<!-- CameraTracking.Object -->
<g id="node12" class="node">
<title>CameraTracking.Object</title>
<g id="a_node12"><a xlink:title="→ CameraTrackingobject_id            ------------------------------timestamps           position_x           position_y           position_z=null      area=null            ">
<polygon fill="transparent" stroke="transparent" points="125.62,-19 5.63,-19 5.63,0 125.62,0 125.62,-19"/>
<text text-anchor="start" x="13.62" y="-8" font-family="arial" text-decoration="underline" font-size="10.00">CameraTracking.Object</text>
</a>
</g>
</g>
<!-- CameraTracking&#45;&gt;CameraTracking.Object -->
<g id="edge1" class="edge">
<title>CameraTracking-&gt;CameraTracking.Object</title>
<path fill="none" stroke="#000000" stroke-width="0.75" stroke-opacity="0.250980" d="M65.62,-54.83C65.62,-43.26 65.62,-28.32 65.62,-19.08"/>
</g>
<!-- WeightScale -->
<g id="node2" class="node">
<title>WeightScale</title>
<g id="a_node2"><a xlink:title="weight_scale_serial_number ">
<polygon fill="#000000" fill-opacity="0.125490" stroke="transparent" points="685.12,-303 614.12,-303 614.12,-268 685.12,-268 685.12,-303"/>
<text text-anchor="start" x="622.12" y="-284" font-family="arial" text-decoration="underline" font-size="10.00">WeightScale</text>
</a>
</g>
</g>
<!-- ExperimentWeightScale -->
<g id="node7" class="node">
<title>ExperimentWeightScale</title>
<g id="a_node7"><a xlink:title="→ Experiment→ WeightScaleweight_scale_install_time ------------------------------→ ArenaNestweight_scale_description weight_scale_sampling_rate=null ">
<polygon fill="#00ff00" fill-opacity="0.188235" stroke="#00ff00" stroke-opacity="0.188235" points="722.62,-232 576.62,-232 576.62,-197 722.62,-197 722.62,-232"/>
<text text-anchor="middle" x="649.62" y="-211.4" font-family="arial" font-size="12.00" fill="darkgreen">ExperimentWeightScale</text>
</a>
</g>
</g>
<!-- WeightScale&#45;&gt;ExperimentWeightScale -->
<g id="edge2" class="edge">
<title>WeightScale-&gt;ExperimentWeightScale</title>
<path fill="none" stroke="#000000" stroke-width="0.75" stroke-opacity="0.250980" d="M649.62,-267.8C649.62,-256.95 649.62,-242.87 649.62,-232.05"/>
</g>
<!-- WheelState -->
<g id="node3" class="node">
<title>WheelState</title>
<g id="a_node3"><a xlink:title="→ Chunk→ ExperimentFoodPatch">
<ellipse fill="#00007f" fill-opacity="0.250980" stroke="#00007f" stroke-opacity="0.250980" cx="333.62" cy="-72.5" rx="49.25" ry="17.5"/>
<text text-anchor="middle" x="333.62" y="-69.4" font-family="arial" font-size="12.00" fill="#00007f" fill-opacity="0.627451">WheelState</text>
</a>
</g>
</g>
<!-- ExperimentFoodPatch -->
<g id="node4" class="node">
<title>ExperimentFoodPatch</title>
<g id="a_node4"><a xlink:title="→ Experiment→ FoodPatchfood_patch_install_time ------------------------------food_patch_description wheel_sampling_rate  wheel_radius=null    ">
<polygon fill="#00ff00" fill-opacity="0.188235" stroke="#00ff00" stroke-opacity="0.188235" points="537.62,-161 401.62,-161 401.62,-126 537.62,-126 537.62,-161"/>
<text text-anchor="middle" x="469.62" y="-140.4" font-family="arial" font-size="12.00" fill="darkgreen">ExperimentFoodPatch</text>
</a>
</g>
</g>
<!-- ExperimentFoodPatch&#45;&gt;WheelState -->
<g id="edge3" class="edge">
<title>ExperimentFoodPatch-&gt;WheelState</title>
<path fill="none" stroke="#000000" stroke-width="0.75" stroke-opacity="0.250980" d="M437.05,-125.97C413.79,-114.17 382.86,-98.48 360.9,-87.34"/>
</g>
<!-- FoodPatchWheel -->
<g id="node8" class="node">
<title>FoodPatchWheel</title>
<g id="a_node8"><a xlink:title="→ Chunk→ ExperimentFoodPatch------------------------------timestamps           angle                intensity            ">
<ellipse fill="#00007f" fill-opacity="0.250980" stroke="#00007f" stroke-opacity="0.250980" cx="469.62" cy="-72.5" rx="68.5" ry="17.5"/>
<text text-anchor="middle" x="469.62" y="-69.4" font-family="arial" font-size="12.00" fill="#00007f" fill-opacity="0.627451">FoodPatchWheel</text>
</a>
</g>
</g>
<!-- ExperimentFoodPatch&#45;&gt;FoodPatchWheel -->
<g id="edge4" class="edge">
<title>ExperimentFoodPatch-&gt;FoodPatchWheel</title>
<path fill="none" stroke="#000000" stroke-width="0.75" stroke-opacity="0.250980" d="M469.62,-125.8C469.62,-114.95 469.62,-100.87 469.62,-90.05"/>
</g>
<!-- FoodPatchEvent -->
<g id="node18" class="node">
<title>FoodPatchEvent</title>
<g id="a_node18"><a xlink:title="→ Chunk→ ExperimentFoodPatchevent_number         ------------------------------event_time           → EventType">
<ellipse fill="#00007f" fill-opacity="0.250980" stroke="#00007f" stroke-opacity="0.250980" cx="622.62" cy="-72.5" rx="66" ry="17.5"/>
<text text-anchor="start" x="577.62" y="-70.4" font-family="arial" text-decoration="underline" font-size="12.00" fill="#00007f" fill-opacity="0.627451">FoodPatchEvent</text>
</a>
</g>
</g>
<!-- ExperimentFoodPatch&#45;&gt;FoodPatchEvent -->
<g id="edge5" class="edge">
<title>ExperimentFoodPatch-&gt;FoodPatchEvent</title>
<path fill="none" stroke="#000000" stroke-width="0.75" stroke-opacity="0.250980" d="M506.27,-125.97C532,-114.37 566.07,-99.01 590.68,-87.9"/>
</g>
<!-- WeightMeasurement -->
<g id="node5" class="node">
<title>WeightMeasurement</title>
<g id="a_node5"><a xlink:title="→ Chunk→ ExperimentWeightScale------------------------------timestamps           weight               confidence           ">
<ellipse fill="#00007f" fill-opacity="0.250980" stroke="#00007f" stroke-opacity="0.250980" cx="786.62" cy="-72.5" rx="79.25" ry="17.5"/>
<text text-anchor="middle" x="786.62" y="-69.4" font-family="arial" font-size="12.00" fill="#00007f" fill-opacity="0.627451">WeightMeasurement</text>
</a>
</g>
</g>
<!-- Arena -->
<g id="node6" class="node">
<title>Arena</title>
<g id="a_node6"><a xlink:title="arena_name           ------------------------------arena_description=&quot;&quot; → ArenaShapearena_x_dim          arena_y_dim          arena_z_dim=0        ">
<polygon fill="#000000" fill-opacity="0.125490" stroke="transparent" points="407.62,-374 365.62,-374 365.62,-339 407.62,-339 407.62,-374"/>
<text text-anchor="start" x="373.62" y="-355" font-family="arial" text-decoration="underline" font-size="10.00">Arena</text>
</a>
</g>
</g>
<!-- Experiment -->
<g id="node16" class="node">
<title>Experiment</title>
<g id="a_node16"><a xlink:title="experiment_name      ------------------------------experiment_start_time experiment_description → Arena→ Locationexperiment_type=&quot;foraging&quot; INDEX (experiment_type)">
<polygon fill="#00ff00" fill-opacity="0.188235" stroke="#00ff00" stroke-opacity="0.188235" points="425.12,-303 348.12,-303 348.12,-268 425.12,-268 425.12,-303"/>
<text text-anchor="start" x="356.12" y="-283.4" font-family="arial" text-decoration="underline" font-size="12.00" fill="darkgreen">Experiment</text>
</a>
</g>
</g>
<!-- Arena&#45;&gt;Experiment -->
<g id="edge6" class="edge">
<title>Arena-&gt;Experiment</title>
<path fill="none" stroke="#000000" stroke-width="0.75" stroke-dasharray="5,2" stroke-opacity="0.250980" d="M386.62,-338.8C386.62,-327.95 386.62,-313.87 386.62,-303.05"/>
</g>
<!-- ExperimentWeightScale&#45;&gt;WeightMeasurement -->
<g id="edge7" class="edge">
<title>ExperimentWeightScale-&gt;WeightMeasurement</title>
<path fill="none" stroke="#000000" stroke-width="0.75" stroke-opacity="0.250980" d="M665.88,-196.89C692.39,-169.8 744.6,-116.45 770.82,-89.66"/>
</g>
<!-- EventType -->
<g id="node9" class="node">
<title>EventType</title>
<g id="a_node9"><a xlink:title="event_code           ------------------------------event_type           ">
<polygon fill="#000000" fill-opacity="0.125490" stroke="transparent" points="654.12,-161 591.12,-161 591.12,-126 654.12,-126 654.12,-161"/>
<text text-anchor="start" x="599.12" y="-142" font-family="arial" text-decoration="underline" font-size="10.00">EventType</text>
</a>
</g>
</g>
<!-- EventType&#45;&gt;FoodPatchEvent -->
<g id="edge8" class="edge">
<title>EventType-&gt;FoodPatchEvent</title>
<path fill="none" stroke="#000000" stroke-width="0.75" stroke-dasharray="5,2" stroke-opacity="0.250980" d="M622.62,-125.8C622.62,-114.95 622.62,-100.87 622.62,-90.05"/>
</g>
<!-- ExperimentCamera -->
<g id="node10" class="node">
<title>ExperimentCamera</title>
<g id="a_node10"><a xlink:title="→ Experiment→ Cameracamera_install_time  ------------------------------camera_description   camera_sampling_rate camera_gain=null     camera_bin=null      ">
<polygon fill="#00ff00" fill-opacity="0.188235" stroke="#00ff00" stroke-opacity="0.188235" points="267.62,-161 147.62,-161 147.62,-126 267.62,-126 267.62,-161"/>
<text text-anchor="start" x="155.62" y="-141.4" font-family="arial" text-decoration="underline" font-size="12.00" fill="darkgreen">ExperimentCamera</text>
</a>
</g>
</g>
<!-- ExperimentCamera&#45;&gt;CameraTracking -->
<g id="edge9" class="edge">
<title>ExperimentCamera-&gt;CameraTracking</title>
<path fill="none" stroke="#000000" stroke-width="0.75" stroke-opacity="0.250980" d="M173.61,-125.97C149.98,-114.49 118.77,-99.32 95.98,-88.25"/>
</g>
<!-- qc.CameraQC -->
<g id="node14" class="node">
<title>qc.CameraQC</title>
<g id="a_node14"><a xlink:title="→ Chunk→ ExperimentCamera------------------------------drop_count=null      max_harp_delta       max_camera_delta     timestamps           time_delta           frame_delta          hw_counter_delta     hw_timestamp_delta   frame_offset         ">
<ellipse fill="#00007f" fill-opacity="0.250980" stroke="#00007f" stroke-opacity="0.250980" cx="207.62" cy="-72.5" rx="58.25" ry="17.5"/>
<text text-anchor="middle" x="207.62" y="-69.4" font-family="arial" font-size="12.00" fill="#00007f" fill-opacity="0.627451">qc.CameraQC</text>
</a>
</g>
</g>
<!-- ExperimentCamera&#45;&gt;qc.CameraQC -->
<g id="edge10" class="edge">
<title>ExperimentCamera-&gt;qc.CameraQC</title>
<path fill="none" stroke="#000000" stroke-width="0.75" stroke-opacity="0.250980" d="M207.62,-125.8C207.62,-114.95 207.62,-100.87 207.62,-90.05"/>
</g>
<!-- Camera -->
<g id="node11" class="node">
<title>Camera</title>
<g id="a_node11"><a xlink:title="camera_serial_number ">
<polygon fill="#000000" fill-opacity="0.125490" stroke="transparent" points="287.12,-232 236.12,-232 236.12,-197 287.12,-197 287.12,-232"/>
<text text-anchor="start" x="244.12" y="-213" font-family="arial" text-decoration="underline" font-size="10.00">Camera</text>
</a>
</g>
</g>
<!-- Camera&#45;&gt;ExperimentCamera -->
<g id="edge11" class="edge">
<title>Camera-&gt;ExperimentCamera</title>
<path fill="none" stroke="#000000" stroke-width="0.75" stroke-opacity="0.250980" d="M248.55,-196.8C240.06,-185.95 229.04,-171.87 220.58,-161.05"/>
</g>
<!-- Epoch -->
<g id="node13" class="node">
<title>Epoch</title>
<g id="a_node13"><a xlink:title="→ Experimentepoch_start          ">
<polygon fill="#00ff00" fill-opacity="0.188235" stroke="#00ff00" stroke-opacity="0.188235" points="412.12,-232 361.12,-232 361.12,-197 412.12,-197 412.12,-232"/>
<text text-anchor="start" x="369.12" y="-212.4" font-family="arial" text-decoration="underline" font-size="12.00" fill="darkgreen">Epoch</text>
</a>
</g>
</g>
<!-- Chunk -->
<g id="node15" class="node">
<title>Chunk</title>
<g id="a_node15"><a xlink:title="→ Experimentchunk_start          ------------------------------chunk_end            → Experiment.Directory→ [nullable] Epoch">
<polygon fill="#00ff00" fill-opacity="0.188235" stroke="#00ff00" stroke-opacity="0.188235" points="367.62,-161 315.62,-161 315.62,-126 367.62,-126 367.62,-161"/>
<text text-anchor="middle" x="341.62" y="-140.4" font-family="arial" font-size="12.00" fill="darkgreen">Chunk</text>
</a>
</g>
</g>
<!-- Epoch&#45;&gt;Chunk -->
<g id="edge12" class="edge">
<title>Epoch-&gt;Chunk</title>
<path fill="none" stroke="#000000" stroke-width="0.75" stroke-dasharray="5,2" stroke-opacity="0.250980" d="M375.73,-196.8C368.66,-185.95 359.47,-171.87 352.42,-161.05"/>
</g>
<!-- Chunk&#45;&gt;CameraTracking -->
<g id="edge13" class="edge">
<title>Chunk-&gt;CameraTracking</title>
<path fill="none" stroke="#000000" stroke-width="0.75" stroke-opacity="0.250980" d="M315.38,-135.81C303.54,-132.8 289.38,-129.21 276.62,-126 220.06,-111.78 154.92,-95.61 112.16,-85.01"/>
</g>
<!-- Chunk&#45;&gt;WheelState -->
<g id="edge14" class="edge">
<title>Chunk-&gt;WheelState</title>
<path fill="none" stroke="#000000" stroke-width="0.75" stroke-opacity="0.250980" d="M339.69,-125.8C338.43,-114.95 336.8,-100.87 335.54,-90.05"/>
</g>
<!-- Chunk&#45;&gt;WeightMeasurement -->
<g id="edge15" class="edge">
<title>Chunk-&gt;WeightMeasurement</title>
<path fill="none" stroke="#000000" stroke-width="0.75" stroke-opacity="0.250980" d="M367.83,-132.94C375.71,-130.36 384.44,-127.79 392.62,-126 525.97,-96.85 562.67,-110.45 697.62,-90 707.88,-88.45 718.76,-86.6 729.27,-84.71"/>
</g>
<!-- Chunk&#45;&gt;FoodPatchWheel -->
<g id="edge16" class="edge">
<title>Chunk-&gt;FoodPatchWheel</title>
<path fill="none" stroke="#000000" stroke-width="0.75" stroke-opacity="0.250980" d="M367.84,-128.37C389.34,-116.78 419.71,-100.41 441.67,-88.57"/>
</g>
<!-- Chunk&#45;&gt;qc.CameraQC -->
<g id="edge17" class="edge">
<title>Chunk-&gt;qc.CameraQC</title>
<path fill="none" stroke="#000000" stroke-width="0.75" stroke-opacity="0.250980" d="M315.47,-129.03C292.47,-117.19 259.08,-100 235.56,-87.89"/>
</g>
<!-- Chunk&#45;&gt;FoodPatchEvent -->
<g id="edge18" class="edge">
<title>Chunk-&gt;FoodPatchEvent</title>
<path fill="none" stroke="#000000" stroke-width="0.75" stroke-opacity="0.250980" d="M367.7,-133.57C375.66,-130.98 384.46,-128.25 392.62,-126 409.95,-121.23 511.62,-98.33 573.84,-84.39"/>
</g>
<!-- Experiment&#45;&gt;ExperimentFoodPatch -->
<g id="edge19" class="edge">
<title>Experiment-&gt;ExperimentFoodPatch</title>
<path fill="none" stroke="#000000" stroke-width="0.75" stroke-opacity="0.250980" d="M425.35,-278.33C452.33,-271.79 486.45,-258.54 503.62,-232 518.24,-209.43 499.89,-179.6 485,-161.25"/>
</g>
<!-- Experiment&#45;&gt;ExperimentWeightScale -->
<g id="edge20" class="edge">
<title>Experiment-&gt;ExperimentWeightScale</title>
<path fill="none" stroke="#000000" stroke-width="0.75" stroke-opacity="0.250980" d="M425.15,-274.39C467.52,-263.28 536.27,-245.24 586.54,-232.05"/>
</g>
<!-- Experiment&#45;&gt;ExperimentCamera -->
<g id="edge21" class="edge">
<title>Experiment-&gt;ExperimentCamera</title>
<path fill="none" stroke="#000000" stroke-width="0.75" stroke-opacity="0.250980" d="M347.83,-282.39C311.26,-278.26 257.56,-266.3 226.62,-232 209.03,-212.49 206.39,-180.61 206.62,-161.19"/>
</g>
<!-- Experiment&#45;&gt;Epoch -->
<g id="edge22" class="edge">
<title>Experiment-&gt;Epoch</title>
<path fill="none" stroke="#000000" stroke-width="0.75" stroke-opacity="0.250980" d="M386.62,-267.8C386.62,-256.95 386.62,-242.87 386.62,-232.05"/>
</g>
<!-- Experiment&#45;&gt;Chunk -->
<g id="edge23" class="edge">
<title>Experiment-&gt;Chunk</title>
<path fill="none" stroke="#000000" stroke-width="0.75" stroke-opacity="0.250980" d="M372.39,-267.66C364.92,-257.88 356.37,-244.96 351.62,-232 343.01,-208.45 341.33,-179.17 341.23,-161.16"/>
</g>
<!-- FoodPatch -->
<g id="node17" class="node">
<title>FoodPatch</title>
<g id="a_node17"><a xlink:title="food_patch_serial_number ">
<polygon fill="#000000" fill-opacity="0.125490" stroke="transparent" points="494.62,-232 430.62,-232 430.62,-197 494.62,-197 494.62,-232"/>
<text text-anchor="start" x="438.62" y="-213" font-family="arial" text-decoration="underline" font-size="10.00">FoodPatch</text>
</a>
</g>
</g>
<!-- FoodPatch&#45;&gt;ExperimentFoodPatch -->
<g id="edge24" class="edge">
<title>FoodPatch-&gt;ExperimentFoodPatch</title>
<path fill="none" stroke="#000000" stroke-width="0.75" stroke-opacity="0.250980" d="M464.32,-196.8C465.42,-185.95 466.85,-171.87 467.95,-161.05"/>
</g>
</g>
</svg>