<svg xmlns="http://www.w3.org/2000/svg" xmlns:xlink="http://www.w3.org/1999/xlink" width="874pt" height="382pt" viewBox="0.00 0.00 873.62 382.00">
<g id="graph0" class="graph" transform="scale(1 1) rotate(0) translate(4 378)">
<polygon fill="white" stroke="transparent" points="-4,4 -4,-378 869.62,-378 869.62,4 -4,4"/>
<!-- Arena -->
<g id="node1" class="node">
<title>Arena</title>
<g id="a_node1"><a xlink:title="arena_name           
------------------------------
arena_description=&quot;&quot;
→ ArenaShape
arena_x_dim          
arena_y_dim          
arena_z_dim=0        
">
<polygon fill="#000000" fill-opacity="0.125490" stroke="transparent" points="426.25,-374 384.25,-374 384.25,-339 426.25,-339 426.25,-374"/>
<text text-anchor="start" x="392.25" y="-355" font-family="arial" text-decoration="underline" font-size="10.00">Arena</text>
</a>
</g>
</g>
<!-- Experiment -->
<g id="node14" class="node">
<title>Experiment</title>
<g id="a_node14"><a xlink:title="experiment_name      
------------------------------
experiment_start_time
experiment_description
→ Arena
→ Location
experiment_type=&quot;foraging&quot;
INDEX (experiment_type)
">
<polygon fill="#00ff00" fill-opacity="0.188235" stroke="#00ff00" stroke-opacity="0.188235" points="443.75,-303 366.75,-303 366.75,-268 443.75,-268 443.75,-303"/>
<text text-anchor="start" x="374.75" y="-283.4" font-family="arial" text-decoration="underline" font-size="12.00" fill="darkgreen">Experiment</text>
</a>
</g>
</g>
<!-- Arena&#45;&gt;Experiment -->
<g id="edge1" class="edge">
<title>Arena-&gt;Experiment</title>
<path fill="none" stroke="#000000" stroke-width="0.75" stroke-dasharray="5,2" stroke-opacity="0.250980" d="M405.25,-338.8C405.25,-327.95 405.25,-313.87 405.25,-303.05"/>
</g>
<!-- ExperimentFoodPatch -->
<g id="node2" class="node">
<title>ExperimentFoodPatch</title>
<g id="a_node2"><a xlink:title="→ Experiment
→ FoodPatch
food_patch_install_time
------------------------------
food_patch_description
wheel_sampling_rate  
wheel_radius=null    
">
<polygon fill="#00ff00" fill-opacity="0.188235" stroke="#00ff00" stroke-opacity="0.188235" points="291.25,-161 155.25,-161 155.25,-126 291.25,-126 291.25,-161"/>
<text text-anchor="middle" x="223.25" y="-140.4" font-family="arial" font-size="12.00" fill="darkgreen">ExperimentFoodPatch</text>
</a>
</g>
</g>
<!-- FoodPatchWheel -->
<g id="node5" class="node">
<title>FoodPatchWheel</title>
<g id="a_node5"><a xlink:title="→ Chunk
→ ExperimentFoodPatch
------------------------------
timestamps           
angle                
intensity            
">
<ellipse fill="#00007f" fill-opacity="0.250980" stroke="#00007f" stroke-opacity="0.250980" cx="219.25" cy="-72.5" rx="68.5" ry="17.5"/>
<text text-anchor="middle" x="219.25" y="-69.4" font-family="arial" font-size="12.00" fill="#00007f" fill-opacity="0.627451">FoodPatchWheel</text>
</a>
</g>
</g>
<!-- ExperimentFoodPatch&#45;&gt;FoodPatchWheel -->
<g id="edge2" class="edge">
<title>ExperimentFoodPatch-&gt;FoodPatchWheel</title>
<path fill="none" stroke="#000000" stroke-width="0.75" stroke-opacity="0.250980" d="M222.28,-125.8C221.65,-114.95 220.84,-100.87 220.21,-90.05"/>
</g>
<!-- WheelState -->
<g id="node10" class="node">
<title>WheelState</title>
<g id="a_node10"><a xlink:title="→ Chunk
→ ExperimentFoodPatch
">
<ellipse fill="#00007f" fill-opacity="0.250980" stroke="#00007f" stroke-opacity="0.250980" cx="355.25" cy="-72.5" rx="49.25" ry="17.5"/>
<text text-anchor="middle" x="355.25" y="-69.4" font-family="arial" font-size="12.00" fill="#00007f" fill-opacity="0.627451">WheelState</text>
</a>
</g>
</g>
<!-- ExperimentFoodPatch&#45;&gt;WheelState -->
<g id="edge3" class="edge">
<title>ExperimentFoodPatch-&gt;WheelState</title>
<path fill="none" stroke="#000000" stroke-width="0.75" stroke-opacity="0.250980" d="M254.87,-125.97C277.44,-114.17 307.47,-98.48 328.78,-87.34"/>
</g>
<!-- FoodPatchEvent -->
<g id="node17" class="node">
<title>FoodPatchEvent</title>
<g id="a_node17"><a xlink:title="→ Chunk
→ ExperimentFoodPatch
event_number         
------------------------------
event_time           
→ EventType
">
<ellipse fill="#00007f" fill-opacity="0.250980" stroke="#00007f" stroke-opacity="0.250980" cx="66.25" cy="-72.5" rx="66" ry="17.5"/>
<text text-anchor="start" x="21.25" y="-70.4" font-family="arial" text-decoration="underline" font-size="12.00" fill="#00007f" fill-opacity="0.627451">FoodPatchEvent</text>
</a>
</g>
</g>
<!-- ExperimentFoodPatch&#45;&gt;FoodPatchEvent -->
<g id="edge4" class="edge">
<title>ExperimentFoodPatch-&gt;FoodPatchEvent</title>
<path fill="none" stroke="#000000" stroke-width="0.75" stroke-opacity="0.250980" d="M185.64,-125.97C159.16,-114.33 124.05,-98.9 98.77,-87.79"/>
</g>
<!-- WeightScale -->
<g id="node3" class="node">
<title>WeightScale</title>
<g id="a_node3"><a xlink:title="weight_scale_serial_number
">
<polygon fill="#000000" fill-opacity="0.125490" stroke="transparent" points="744.75,-303 673.75,-303 673.75,-268 744.75,-268 744.75,-303"/>
<text text-anchor="start" x="681.75" y="-284" font-family="arial" text-decoration="underline" font-size="10.00">WeightScale</text>
</a>
</g>
</g>
<!-- ExperimentWeightScale -->
<g id="node15" class="node">
<title>ExperimentWeightScale</title>
<g id="a_node15"><a xlink:title="→ Experiment
→ WeightScale
weight_scale_install_time
------------------------------
→ ArenaNest
weight_scale_description
weight_scale_sampling_rate=null
">
<polygon fill="#00ff00" fill-opacity="0.188235" stroke="#00ff00" stroke-opacity="0.188235" points="782.25,-232 636.25,-232 636.25,-197 782.25,-197 782.25,-232"/>
<text text-anchor="middle" x="709.25" y="-211.4" font-family="arial" font-size="12.00" fill="darkgreen">ExperimentWeightScale</text>
</a>
</g>
</g>
<!-- WeightScale&#45;&gt;ExperimentWeightScale -->
<g id="edge5" class="edge">
<title>WeightScale-&gt;ExperimentWeightScale</title>
<path fill="none" stroke="#000000" stroke-width="0.75" stroke-opacity="0.250980" d="M709.25,-267.8C709.25,-256.95 709.25,-242.87 709.25,-232.05"/>
</g>
<!-- Camera -->
<g id="node4" class="node">
<title>Camera</title>
<g id="a_node4"><a xlink:title="camera_serial_number
">
<polygon fill="#000000" fill-opacity="0.125490" stroke="transparent" points="499.75,-232 448.75,-232 448.75,-197 499.75,-197 499.75,-232"/>
<text text-anchor="start" x="456.75" y="-213" font-family="arial" text-decoration="underline" font-size="10.00">Camera</text>
</a>
</g>
</g>
<!-- ExperimentCamera -->
<g id="node8" class="node">
<title>ExperimentCamera</title>
<g id="a_node8"><a xlink:title="→ Experiment
→ Camera
camera_install_time  
------------------------------
camera_description   
camera_sampling_rate
camera_gain=null     
camera_bin=null      
">
<polygon fill="#00ff00" fill-opacity="0.188235" stroke="#00ff00" stroke-opacity="0.188235" points="568.25,-161 448.25,-161 448.25,-126 568.25,-126 568.25,-161"/>
<text text-anchor="start" x="456.25" y="-141.4" font-family="arial" text-decoration="underline" font-size="12.00" fill="darkgreen">ExperimentCamera</text>
</a>
</g>
</g>
<!-- Camera&#45;&gt;ExperimentCamera -->
<g id="edge6" class="edge">
<title>Camera-&gt;ExperimentCamera</title>
<path fill="none" stroke="#000000" stroke-width="0.75" stroke-opacity="0.250980" d="M482.48,-196.8C487.83,-185.95 494.76,-171.87 500.1,-161.05"/>
</g>
<!-- Epoch -->
<g id="node6" class="node">
<title>Epoch</title>
<g id="a_node6"><a xlink:title="→ Experiment
epoch_start          
">
<polygon fill="#00ff00" fill-opacity="0.188235" stroke="#00ff00" stroke-opacity="0.188235" points="430.75,-232 379.75,-232 379.75,-197 430.75,-197 430.75,-232"/>
<text text-anchor="start" x="387.75" y="-212.4" font-family="arial" text-decoration="underline" font-size="12.00" fill="darkgreen">Epoch</text>
</a>
</g>
</g>
<!-- Chunk -->
<g id="node12" class="node">
<title>Chunk</title>
<g id="a_node12"><a xlink:title="→ Experiment
chunk_start          
------------------------------
chunk_end            
→ Experiment.Directory
→ [nullable] Epoch
">
<polygon fill="#00ff00" fill-opacity="0.188235" stroke="#00ff00" stroke-opacity="0.188235" points="395.25,-161 343.25,-161 343.25,-126 395.25,-126 395.25,-161"/>
<text text-anchor="middle" x="369.25" y="-140.4" font-family="arial" font-size="12.00" fill="darkgreen">Chunk</text>
</a>
</g>
</g>
<!-- Epoch&#45;&gt;Chunk -->
<g id="edge7" class="edge">
<title>Epoch-&gt;Chunk</title>
<path fill="none" stroke="#000000" stroke-width="0.75" stroke-dasharray="5,2" stroke-opacity="0.250980" d="M396.54,-196.8C390.88,-185.95 383.53,-171.87 377.88,-161.05"/>
</g>
<!-- FoodPatch -->
<g id="node7" class="node">
<title>FoodPatch</title>
<g id="a_node7"><a xlink:title="food_patch_serial_number
">
<polygon fill="#000000" fill-opacity="0.125490" stroke="transparent" points="315.25,-232 251.25,-232 251.25,-197 315.25,-197 315.25,-232"/>
<text text-anchor="start" x="259.25" y="-213" font-family="arial" text-decoration="underline" font-size="10.00">FoodPatch</text>
</a>
</g>
</g>
<!-- FoodPatch&#45;&gt;ExperimentFoodPatch -->
<g id="edge8" class="edge">
<title>FoodPatch-&gt;ExperimentFoodPatch</title>
<path fill="none" stroke="#000000" stroke-width="0.75" stroke-opacity="0.250980" d="M268.73,-196.8C259.29,-185.95 247.05,-171.87 237.64,-161.05"/>
</g>
<!-- CameraTracking -->
<g id="node9" class="node">
<title>CameraTracking</title>
<g id="a_node9"><a xlink:title="→ Chunk
→ ExperimentCamera
→ TrackingParamSet
">
<ellipse fill="#00007f" fill-opacity="0.250980" stroke="#00007f" stroke-opacity="0.250980" cx="488.25" cy="-72.5" rx="65.75" ry="17.5"/>
<text text-anchor="middle" x="488.25" y="-69.4" font-family="arial" font-size="12.00" fill="#00007f" fill-opacity="0.627451">CameraTracking</text>
</a>
</g>
</g>
<!-- ExperimentCamera&#45;&gt;CameraTracking -->
<g id="edge9" class="edge">
<title>ExperimentCamera-&gt;CameraTracking</title>
<path fill="none" stroke="#000000" stroke-width="0.75" stroke-opacity="0.250980" d="M503.41,-125.8C500.26,-114.95 496.18,-100.87 493.05,-90.05"/>
</g>
<!-- qc.CameraQC -->
<g id="node13" class="node">
<title>qc.CameraQC</title>
<g id="a_node13"><a xlink:title="→ Chunk
→ ExperimentCamera
------------------------------
drop_count=null      
max_harp_delta       
max_camera_delta     
timestamps           
time_delta           
frame_delta          
hw_counter_delta     
hw_timestamp_delta   
frame_offset         
">
<ellipse fill="#00007f" fill-opacity="0.250980" stroke="#00007f" stroke-opacity="0.250980" cx="630.25" cy="-72.5" rx="58.25" ry="17.5"/>
<text text-anchor="middle" x="630.25" y="-69.4" font-family="arial" font-size="12.00" fill="#00007f" fill-opacity="0.627451">qc.CameraQC</text>
</a>
</g>
</g>
<!-- ExperimentCamera&#45;&gt;qc.CameraQC -->
<g id="edge10" class="edge">
<title>ExperimentCamera-&gt;qc.CameraQC</title>
<path fill="none" stroke="#000000" stroke-width="0.75" stroke-opacity="0.250980" d="M537.47,-125.97C557.77,-114.49 584.59,-99.32 604.17,-88.25"/>
</g>
<!-- CameraTracking.Object -->
<g id="node18" class="node">
<title>CameraTracking.Object</title>
<g id="a_node18"><a xlink:title="→ CameraTracking
object_id            
------------------------------
timestamps           
position_x           
position_y           
position_z=null      
area=null            
">
<polygon fill="transparent" stroke="transparent" points="548.25,-19 428.25,-19 428.25,0 548.25,0 548.25,-19"/>
<text text-anchor="start" x="436.25" y="-8" font-family="arial" text-decoration="underline" font-size="10.00">CameraTracking.Object</text>
</a>
</g>
</g>
<!-- CameraTracking&#45;&gt;CameraTracking.Object -->
<g id="edge11" class="edge">
<title>CameraTracking-&gt;CameraTracking.Object</title>
<path fill="none" stroke="#000000" stroke-width="0.75" stroke-opacity="0.250980" d="M488.25,-54.83C488.25,-43.26 488.25,-28.32 488.25,-19.08"/>
</g>
<!-- EventType -->
<g id="node11" class="node">
<title>EventType</title>
<g id="a_node11"><a xlink:title="event_code           
------------------------------
event_type           
">
<polygon fill="#000000" fill-opacity="0.125490" stroke="transparent" points="97.75,-161 34.75,-161 34.75,-126 97.75,-126 97.75,-161"/>
<text text-anchor="start" x="42.75" y="-142" font-family="arial" text-decoration="underline" font-size="10.00">EventType</text>
</a>
</g>
</g>
<!-- EventType&#45;&gt;FoodPatchEvent -->
<g id="edge12" class="edge">
<title>EventType-&gt;FoodPatchEvent</title>
<path fill="none" stroke="#000000" stroke-width="0.75" stroke-dasharray="5,2" stroke-opacity="0.250980" d="M66.25,-125.8C66.25,-114.95 66.25,-100.87 66.25,-90.05"/>
</g>
<!-- Chunk&#45;&gt;FoodPatchWheel -->
<g id="edge13" class="edge">
<title>Chunk-&gt;FoodPatchWheel</title>
<path fill="none" stroke="#000000" stroke-width="0.75" stroke-opacity="0.250980" d="M343.12,-130.48C317.52,-118.7 278.46,-100.74 251.07,-88.14"/>
</g>
<!-- Chunk&#45;&gt;CameraTracking -->
<g id="edge14" class="edge">
<title>Chunk-&gt;CameraTracking</title>
<path fill="none" stroke="#000000" stroke-width="0.75" stroke-opacity="0.250980" d="M395.37,-127.36C415.21,-115.85 442.37,-100.1 462.2,-88.61"/>
</g>
<!-- Chunk&#45;&gt;WheelState -->
<g id="edge15" class="edge">
<title>Chunk-&gt;WheelState</title>
<path fill="none" stroke="#000000" stroke-width="0.75" stroke-opacity="0.250980" d="M365.86,-125.8C363.66,-114.95 360.8,-100.87 358.61,-90.05"/>
</g>
<!-- Chunk&#45;&gt;qc.CameraQC -->
<g id="edge16" class="edge">
<title>Chunk-&gt;qc.CameraQC</title>
<path fill="none" stroke="#000000" stroke-width="0.75" stroke-opacity="0.250980" d="M395.71,-135.5C440.94,-123.55 533.48,-99.08 587.82,-84.72"/>
</g>
<!-- WeightMeasurement -->
<g id="node16" class="node">
<title>WeightMeasurement</title>
<g id="a_node16"><a xlink:title="→ Chunk
→ ExperimentWeightScale
------------------------------
timestamps           
weight               
confidence           
">
<ellipse fill="#00007f" fill-opacity="0.250980" stroke="#00007f" stroke-opacity="0.250980" cx="786.25" cy="-72.5" rx="79.25" ry="17.5"/>
<text text-anchor="middle" x="786.25" y="-69.4" font-family="arial" font-size="12.00" fill="#00007f" fill-opacity="0.627451">WeightMeasurement</text>
</a>
</g>
</g>
<!-- Chunk&#45;&gt;WeightMeasurement -->
<g id="edge17" class="edge">
<title>Chunk-&gt;WeightMeasurement</title>
<path fill="none" stroke="#000000" stroke-width="0.75" stroke-opacity="0.250980" d="M395.39,-135.73C408.49,-132.49 424.65,-128.73 439.25,-126 553.05,-104.7 582.97,-108.56 697.25,-90 707.33,-88.36 718.03,-86.49 728.39,-84.61"/>
</g>
<!-- Chunk&#45;&gt;FoodPatchEvent -->
<g id="edge18" class="edge">
<title>Chunk-&gt;FoodPatchEvent</title>
<path fill="none" stroke="#000000" stroke-width="0.75" stroke-opacity="0.250980" d="M343.06,-136.15C330.17,-133.04 314.41,-129.28 300.25,-126 236.57,-111.24 162.99,-94.84 115.6,-84.36"/>
</g>
<!-- Experiment&#45;&gt;ExperimentFoodPatch -->
<g id="edge19" class="edge">
<title>Experiment-&gt;ExperimentFoodPatch</title>
<path fill="none" stroke="#000000" stroke-width="0.75" stroke-opacity="0.250980" d="M366.45,-282.68C329.19,-278.79 274,-267.02 242.25,-232 224.6,-212.54 221.98,-180.64 222.23,-161.21"/>
</g>
<!-- Experiment&#45;&gt;Epoch -->
<g id="edge20" class="edge">
<title>Experiment-&gt;Epoch</title>
<path fill="none" stroke="#000000" stroke-width="0.75" stroke-opacity="0.250980" d="M405.25,-267.8C405.25,-256.95 405.25,-242.87 405.25,-232.05"/>
</g>
<!-- Experiment&#45;&gt;ExperimentCamera -->
<g id="edge21" class="edge">
<title>Experiment-&gt;ExperimentCamera</title>
<path fill="none" stroke="#000000" stroke-width="0.75" stroke-opacity="0.250980" d="M443.92,-275.82C467.22,-268.38 495.05,-255.08 509.25,-232 522.55,-210.39 518.07,-179.74 513.35,-161.04"/>
</g>
<!-- Experiment&#45;&gt;Chunk -->
<g id="edge22" class="edge">
<title>Experiment-&gt;Chunk</title>
<path fill="none" stroke="#000000" stroke-width="0.75" stroke-opacity="0.250980" d="M390.97,-267.75C383.58,-258 375.28,-245.08 371.25,-232 363.91,-208.18 365.16,-178.97 367,-161.05"/>
</g>
<!-- Experiment&#45;&gt;ExperimentWeightScale -->
<g id="edge23" class="edge">
<title>Experiment-&gt;ExperimentWeightScale</title>
<path fill="none" stroke="#000000" stroke-width="0.75" stroke-opacity="0.250980" d="M443.75,-275.76C492.08,-264.79 575.98,-245.75 636.55,-232"/>
</g>
<!-- ExperimentWeightScale&#45;&gt;WeightMeasurement -->
<g id="edge24" class="edge">
<title>ExperimentWeightScale-&gt;WeightMeasurement</title>
<path fill="none" stroke="#000000" stroke-width="0.75" stroke-opacity="0.250980" d="M718.39,-196.89C733.2,-169.95 762.31,-117.02 777.13,-90.09"/>
</g>
</g>
</svg>
